# xmcd
#
# Track frame offsets:
#	150
#	19863
#	37242
#	55864
#	71019
#	85748
#	99234
#	112409
#	120642
#	142122
#	162695
#	179848
#	199764
#	212355
#	224609
#	253257
#	270143
#	279900
#	294461
#	305008
#
# Disc length: 4203 seconds
# Revision: 0
# Processed by: cddbd v1.5.2PL0 Copyright (c) Steve Scherf et al.
# Submitted via: dBpowerAMP V12.0
#
DISCID=3f106914
DTITLE=Various Artist - Country Greats 100, 2
DYEAR=2018
DGENRE=Americana
TTITLE0=The Mavericks - Dance the Night Away
TTITLE1=John Mellencamp - Paper in Fire
TTITLE2=Sugarland - Stuck Like Glue
TTITLE3=Whiskeytown - Don't Be Sad
TTITLE4=Toby Keith - Courtesy of the Red, White and Blue
TTITLE5=Jim Stafford - Spiders and Snakes
TTITLE6=Jerry Lee Lewis - You Win Again
TTITLE7=Jon Langford - Living a Lie
TTITLE8=The Waco Brothers - Fast Train Down
TTITLE9=Joe Ely - The Road Goes on Forever
TTITLE10=Kirsy MacColl - Don't Come the Cowboy With Me, Sonny Jim
TTITLE11=Old 97's - Big Brown Eyes
TTITLE12=Justin Townes Earle - Harlem River Blues
TTITLE13=Johnny Cash - I Walk the Line
TTITLE14=The Flying Burrito Brothers - Wild Horses
TTITLE15=Joe Walsh - Birdcall Morning
TTITLE16=Jerry Lee Lewis - Release Me
TTITLE17=Rita Remington - I've Never Been This Far Before
TTITLE18=Sleepy LaBeef - Blackland Farmer
TTITLE19=Warren Smith - Red Cadillac and a Black Moustache 
EXTD=
EXTT0=
EXTT1=
EXTT2=
EXTT3=
EXTT4=
EXTT5=
EXTT6=
EXTT7=
EXTT8=
EXTT9=
EXTT10=
EXTT11=
EXTT12=
EXTT13=
EXTT14=
EXTT15=
EXTT16=
EXTT17=
EXTT18=
EXTT19=
PLAYORDER=
